<svg version="1.1" id="Layer_1" xmlns="http://www.w3.org/2000/svg" xmlns:xlink="http://www.w3.org/1999/xlink" x="0px" y="0px"
	 width="100%" viewBox="0 0 1024 1024" enable-background="new 0 0 1024 1024" xml:space="preserve">
<path fill="#000000" opacity="1.000000" stroke="none" 
	d="
M497.000000,1025.000000 
	C331.333344,1025.000000 166.166672,1025.000000 1.000000,1025.000000 
	C1.000000,683.666687 1.000000,342.333344 1.000000,1.000000 
	C342.333344,1.000000 683.666687,1.000000 1025.000000,1.000000 
	C1025.000000,342.333344 1025.000000,683.666687 1025.000000,1025.000000 
	C849.166687,1025.000000 673.333313,1025.000000 497.000000,1025.000000 
M626.045471,379.313995 
	C625.580383,378.281738 625.241882,377.166901 624.630859,376.229797 
	C617.608398,365.459839 614.098877,353.629913 614.010681,340.806152 
	C613.651611,288.548889 613.459106,236.290115 612.924866,184.034744 
	C612.760254,167.937073 606.779175,153.823318 596.773987,141.162476 
	C581.440002,121.758408 561.085999,112.855659 536.943665,112.095360 
	C520.960205,111.592010 504.946930,111.898125 488.949219,112.060974 
	C484.038177,112.110970 479.009705,112.338692 474.249603,113.425301 
	C455.873413,117.620110 439.999084,126.005760 428.130493,141.268295 
	C418.447876,153.719788 412.330505,167.714554 412.181427,183.290741 
	C411.696686,233.950699 412.028778,284.618225 411.954315,335.282715 
	C411.947083,340.208038 411.939789,345.280212 410.838959,350.030823 
	C406.804626,367.440765 399.369568,382.819946 385.090881,394.615173 
	C371.716156,405.663666 356.660492,411.791412 339.562927,411.893646 
	C289.566772,412.192719 239.567612,411.969391 189.569778,412.048035 
	C184.647812,412.055786 179.580383,412.105408 174.831451,413.212311 
	C156.536728,417.476562 140.512970,425.560638 128.548141,440.811432 
	C118.359138,453.798798 112.535667,468.301605 112.102814,484.670563 
	C111.644791,501.991058 112.062271,519.333374 111.984962,536.665649 
	C111.877258,560.812195 121.076317,580.496460 139.526184,596.129517 
	C153.706390,608.144836 170.252762,613.738037 188.396927,613.876465 
	C236.225510,614.241516 284.059113,614.108887 331.889893,613.939819 
	C348.222504,613.882141 363.449310,616.900879 377.526306,625.747375 
	C389.111938,633.028259 397.722290,642.853760 403.777679,654.742493 
	C410.817627,668.564331 412.062561,683.727783 412.032410,699.056152 
	C411.942200,744.887451 412.028442,790.719055 411.978424,836.550476 
	C411.967102,846.938721 413.583893,856.824524 417.699432,866.542236 
	C426.445648,887.194336 441.127441,901.185547 462.017822,909.087524 
	C475.748352,914.281189 489.993591,914.175781 504.274292,913.972595 
	C519.699341,913.753113 535.371582,914.941101 550.487549,912.608582 
	C574.707703,908.871216 593.103516,895.186646 604.891602,873.370605 
	C612.312744,859.636169 613.979309,844.616333 613.989136,829.320435 
	C614.019043,782.655701 613.971191,735.990845 614.043884,689.326233 
	C614.051270,684.574707 614.226624,679.743042 615.079773,675.087036 
	C618.746033,655.078979 629.099609,638.933105 645.572754,627.338745 
	C658.886658,617.968018 674.226746,613.908325 690.680237,613.953125 
	C739.011230,614.084717 787.343079,614.071350 835.673889,613.911438 
	C841.848938,613.890991 848.131165,613.186829 854.172485,611.901001 
	C873.427917,607.802612 888.671997,597.301025 900.063354,581.359802 
	C909.846008,567.669983 913.690308,551.925354 913.882446,535.416931 
	C914.079407,518.497559 913.320374,501.567474 913.003845,484.641663 
	C912.670532,466.818542 906.068115,451.326050 894.506165,438.147125 
	C879.131042,420.621765 859.195740,412.185364 836.054016,412.074219 
	C785.890564,411.833313 735.725098,412.024200 685.560608,411.952972 
	C681.640747,411.947418 677.627441,411.695679 673.818298,410.841522 
	C654.220276,406.447174 638.183350,396.453430 626.045471,379.313995 
z"/>
<path fill="#75FFAF" opacity="1.000000" stroke="none" 
	d="
M626.244507,379.628174 
	C638.183350,396.453430 654.220276,406.447174 673.818298,410.841522 
	C677.627441,411.695679 681.640747,411.947418 685.560608,411.952972 
	C735.725098,412.024200 785.890564,411.833313 836.054016,412.074219 
	C859.195740,412.185364 879.131042,420.621765 894.506165,438.147125 
	C906.068115,451.326050 912.670532,466.818542 913.003845,484.641663 
	C913.320374,501.567474 914.079407,518.497559 913.882446,535.416931 
	C913.690308,551.925354 909.846008,567.669983 900.063354,581.359802 
	C888.671997,597.301025 873.427917,607.802612 854.172485,611.901001 
	C848.131165,613.186829 841.848938,613.890991 835.673889,613.911438 
	C787.343079,614.071350 739.011230,614.084717 690.680237,613.953125 
	C674.226746,613.908325 658.886658,617.968018 645.572754,627.338745 
	C629.099609,638.933105 618.746033,655.078979 615.079773,675.087036 
	C614.226624,679.743042 614.051270,684.574707 614.043884,689.326233 
	C613.971191,735.990845 614.019043,782.655701 613.989136,829.320435 
	C613.979309,844.616333 612.312744,859.636169 604.891602,873.370605 
	C593.103516,895.186646 574.707703,908.871216 550.487549,912.608582 
	C535.371582,914.941101 519.699341,913.753113 504.274292,913.972595 
	C489.993591,914.175781 475.748352,914.281189 462.017822,909.087524 
	C441.127441,901.185547 426.445648,887.194336 417.699432,866.542236 
	C413.583893,856.824524 411.967102,846.938721 411.978424,836.550476 
	C412.028442,790.719055 411.942200,744.887451 412.032410,699.056152 
	C412.062561,683.727783 410.817627,668.564331 403.777679,654.742493 
	C397.722290,642.853760 389.111938,633.028259 377.526306,625.747375 
	C363.449310,616.900879 348.222504,613.882141 331.889893,613.939819 
	C284.059113,614.108887 236.225510,614.241516 188.396927,613.876465 
	C170.252762,613.738037 153.706390,608.144836 139.526184,596.129517 
	C121.076317,580.496460 111.877258,560.812195 111.984962,536.665649 
	C112.062271,519.333374 111.644791,501.991058 112.102814,484.670563 
	C112.535667,468.301605 118.359138,453.798798 128.548141,440.811432 
	C140.512970,425.560638 156.536728,417.476562 174.831451,413.212311 
	C179.580383,412.105408 184.647812,412.055786 189.569778,412.048035 
	C239.567612,411.969391 289.566772,412.192719 339.562927,411.893646 
	C356.660492,411.791412 371.716156,405.663666 385.090881,394.615173 
	C399.369568,382.819946 406.804626,367.440765 410.838959,350.030823 
	C411.939789,345.280212 411.947083,340.208038 411.954315,335.282715 
	C412.028778,284.618225 411.696686,233.950699 412.181427,183.290741 
	C412.330505,167.714554 418.447876,153.719788 428.130493,141.268295 
	C439.999084,126.005760 455.873413,117.620110 474.249603,113.425301 
	C479.009705,112.338692 484.038177,112.110970 488.949219,112.060974 
	C504.946930,111.898125 520.960205,111.592010 536.943665,112.095360 
	C561.085999,112.855659 581.440002,121.758408 596.773987,141.162476 
	C606.779175,153.823318 612.760254,167.937073 612.924866,184.034744 
	C613.459106,236.290115 613.651611,288.548889 614.010681,340.806152 
	C614.098877,353.629913 617.608398,365.459839 624.630859,376.229797 
	C625.241882,377.166901 625.580383,378.281738 626.244507,379.628174 
z"/>
</svg>